# xmcd
#
# Track frame offsets:
#	150
#	17474
#	30679
#	43856
#	57809
#	76519
#	92811
#	107970
#	126877
#	138492
#	152345
#	166421
#	184579
#	199660
#	214935
#	227780
#	246679
#	262966
#	281485
#
# Disc length: 4031 seconds
#
# Revision: 5
# Processed by: cddbd v1.5.1PL0 Copyright (c) Steve Scherf et al.
# Submitted via: audiograbber 1.83.01
#
DISCID=030fbd13
DTITLE=1996-06 Country Radio - 1996-06 Country Radio
DYEAR=1996
DGENRE=Country
TTITLE0=Faith Hill - You Can't Lose Me
TTITLE1=Blackhawk - Big Guitar
TTITLE2=Rob Crosby - Fallin' In And Crawlin' Out
TTITLE3=The Hutchens - Wait A Minute
TTITLE4=4 Runner - That Was Him (This Is Now)
TTITLE5=Randy Travis - Are We In Trouble Now
TTITLE6=Pam Tillis - It's Lonely Out There
TTITLE7=Doug Supernaw - You Still Got Me
TTITLE8=Junior Brown - Venom Wearin' Denim
TTITLE9=Mark Wills - Jacob's Ladder
TTITLE10=Amy Stephens - Girl Ain't One Of The Boys Anymore
TTITLE11=Phillip Claypool - Circus Leaving Town
TTITLE12=Tammy Graham - Tell Me Again
TTITLE13=Jeff Foxworthy With Alan Jackson - Redneck Games
TTITLE14=Keith Gattis - Real Deal
TTITLE15=Smokin' Armadillos - Miracle Man
TTITLE16=Chely Wright - The Love He Left Behind
TTITLE17=Steve Azar - I Never Stopped Lovin' You
TTITLE18=Hal Ketchum - Hang In There, Superman
EXTD=
EXTT0=
EXTT1=
EXTT2=
EXTT3=
EXTT4=
EXTT5=
EXTT6=
EXTT7=
EXTT8=
EXTT9=
EXTT10=
EXTT11=
EXTT12=
EXTT13=
EXTT14=
EXTT15=
EXTT16=
EXTT17=
EXTT18=
PLAYORDER=
